<svg width="50" height="50" viewBox="0 0 50 50" fill="none" xmlns="http://www.w3.org/2000/svg">
<path d="M25 5C13.955 5 4.99997 13.955 4.99997 25C4.99997 34.3717 11.4533 42.2133 20.1533 44.3833C20.06 44.1133 20 43.8 20 43.4117V39.9933C19.1883 39.9933 17.8283 39.9933 17.4866 39.9933C16.1183 39.9933 14.9016 39.405 14.3116 38.3117C13.6566 37.0967 13.5433 35.2383 11.92 34.1017C11.4383 33.7233 11.805 33.2917 12.36 33.35C13.385 33.64 14.235 34.3433 15.035 35.3867C15.8316 36.4317 16.2066 36.6683 17.695 36.6683C18.4166 36.6683 19.4966 36.6267 20.5133 36.4667C21.06 35.0783 22.005 33.8 23.16 33.1967C16.5 32.5117 13.3216 29.1983 13.3216 24.7C13.3216 22.7633 14.1466 20.89 15.5483 19.3117C15.0883 17.745 14.51 14.55 15.725 13.3333C18.7216 13.3333 20.5333 15.2767 20.9683 15.8017C22.4616 15.29 24.1016 15 25.825 15C27.5516 15 29.1983 15.29 30.695 15.805C31.125 15.2833 32.9383 13.3333 35.9416 13.3333C37.1616 14.5517 36.5766 17.76 36.1116 19.3233C37.505 20.8983 38.325 22.7667 38.325 24.7C38.325 29.195 35.1516 32.5067 28.5016 33.195C30.3316 34.15 31.6666 36.8333 31.6666 38.855V43.4117C31.6666 43.585 31.6283 43.71 31.6083 43.8583C39.4016 41.1267 45 33.7267 45 25C45 13.955 36.045 5 25 5Z" fill="black"/>
</svg>
